<svg width="47.000000" height="47.000000" viewBox="0 0 47 47" fill="none" xmlns="http://www.w3.org/2000/svg" xmlns:xlink="http://www.w3.org/1999/xlink">
	<desc>
			Created with Pixso.
	</desc>
	<defs>
		<clipPath id="clip44_20">
			<rect id="back_dqzmp9l5k5s8" width="47.000000" height="47.000000" fill="white" fill-opacity="0"/>
		</clipPath>
	</defs>
	<g clip-path="url(#clip44_20)">
		<path id="path" d="M35.94 22.8L12.72 22.8L21.22 14.31C21.55 13.98 21.55 13.66 21.22 13.33C20.89 13 20.57 13 20.24 13.33L10.56 23.01C10.24 23.33 10.24 23.66 10.56 23.98L20.24 33.66C20.57 33.99 20.89 33.99 21.22 33.66C21.55 33.33 21.55 33.01 21.22 32.68L12.72 24.19L35.94 24.19C36.4 24.19 36.63 23.96 36.63 23.5C36.63 23.03 36.4 22.8 35.94 22.8Z" fill="#6D6D6D" fill-opacity="1.000000" fill-rule="nonzero"/>
		<path id="path" d="M23.5 2.07C20.65 2.07 17.92 2.61 15.3 3.7C12.67 4.79 10.35 6.34 8.34 8.34C6.34 10.35 4.79 12.67 3.7 15.3C2.61 17.92 2.07 20.65 2.07 23.5C2.07 26.34 2.61 29.07 3.7 31.69C4.79 34.32 6.34 36.64 8.34 38.65C10.35 40.65 12.67 42.2 15.3 43.29C17.92 44.38 20.65 44.92 23.5 44.92C26.34 44.92 29.07 44.38 31.69 43.29C34.32 42.2 36.64 40.65 38.65 38.65C40.65 36.64 42.2 34.32 43.29 31.69C44.38 29.07 44.92 26.34 44.92 23.5C44.92 20.65 44.37 17.92 43.28 15.3C42.2 12.68 40.65 10.36 38.64 8.35C36.63 6.34 34.31 4.79 31.69 3.71C29.07 2.62 26.34 2.07 23.5 2.07ZM23.5 43.54C20.84 43.54 18.28 43.03 15.82 42.01C13.37 41 11.2 39.55 9.32 37.67C7.44 35.79 5.99 33.62 4.98 31.17C3.96 28.71 3.45 26.15 3.45 23.5C3.45 20.84 3.96 18.28 4.98 15.82C5.99 13.37 7.44 11.2 9.32 9.32C11.2 7.44 13.37 5.99 15.82 4.98C18.28 3.96 20.84 3.45 23.5 3.45C26.15 3.45 28.71 3.96 31.17 4.98C33.62 5.99 35.79 7.44 37.67 9.32C39.55 11.2 41 13.37 42.01 15.82C43.03 18.28 43.54 20.84 43.54 23.5C43.54 26.15 43.03 28.71 42.01 31.16C40.99 33.62 39.54 35.78 37.66 37.66C35.78 39.54 33.62 40.99 31.16 42.01C28.71 43.03 26.15 43.54 23.5 43.54Z" fill="#6D6D6D" fill-opacity="1.000000" fill-rule="nonzero"/>
	</g>
</svg>
