<svg width="35.000000" height="40.000000" viewBox="0 0 35 40" fill="none" xmlns="http://www.w3.org/2000/svg" xmlns:xlink="http://www.w3.org/1999/xlink">
	<desc>
			Created with Pixso.
	</desc>
	<defs/>
	<path id="path" d="M26.25 0C26.09 0 11.25 0 11.25 0C8.6 0 6.25 2.42 6.25 4.99L4.8 5.02C2.16 5.02 0 7.42 0 9.99L0 34.97C0 37.54 2.35 39.96 5 39.96L23.75 39.96C26.39 39.96 28.75 37.54 28.75 34.97L30 34.97C32.64 34.97 35 32.54 35 29.97L35 10.02L26.25 0ZM23.75 37.46L5 37.46C3.68 37.46 2.5 36.24 2.5 34.97L2.5 9.99C2.5 8.71 3.56 7.53 4.88 7.53L6.25 7.49L6.25 29.97C6.25 32.54 8.6 34.97 11.25 34.97L26.25 34.97C26.25 36.24 25.06 37.46 23.75 37.46ZM32.5 29.97C32.5 31.24 31.31 32.47 30 32.47L11.25 32.47C9.93 32.47 8.75 31.24 8.75 29.97L8.75 4.99C8.75 3.72 9.93 2.49 11.25 2.49L23.75 2.49C23.73 5.37 23.75 7.52 23.75 7.52C23.75 10.12 26.08 12.48 28.75 12.48C28.75 12.48 30.07 12.48 32.5 12.48L32.5 29.97ZM28.75 9.99C27.41 9.99 26.25 7.57 26.25 6.27C26.25 6.27 26.25 4.96 26.25 2.53L32.5 9.99L28.75 9.99ZM26.25 17.5L15 17.5C14.31 17.5 13.75 18.06 13.75 18.75C13.75 19.44 14.31 20 15 20L26.25 20C26.93 20 27.5 19.44 27.5 18.75C27.5 18.06 26.93 17.5 26.25 17.5ZM26.25 23.74L15 23.74C14.31 23.74 13.75 24.3 13.75 24.99C13.75 25.68 14.31 26.24 15 26.24L26.25 26.24C26.93 26.24 27.5 25.68 27.5 24.99C27.5 24.3 26.93 23.74 26.25 23.74Z" fill="#6D6D6D" fill-opacity="1.000000" fill-rule="nonzero"/>
</svg>
