<svg width="38.000000" height="38.000000" viewBox="0 0 38 38" fill="none" xmlns="http://www.w3.org/2000/svg" xmlns:xlink="http://www.w3.org/1999/xlink">
	<desc>
			Created with Pixso.
	</desc>
	<defs>
		<clipPath id="clip43_155">
			<rect id="search_v9zda26xdcfv" width="38.000000" height="38.000000" fill="white" fill-opacity="0"/>
		</clipPath>
	</defs>
	<g clip-path="url(#clip43_155)">
		<path id="Search_1_" d="M34.69 30.21L26.38 21.9C26.07 21.59 25.57 21.59 25.26 21.9L24.14 23.02L22.39 21.27C24.22 19.18 25.33 16.44 25.33 13.45C25.33 6.91 20 1.58 13.45 1.58C6.91 1.58 1.58 6.91 1.58 13.45C1.58 20 6.91 25.33 13.45 25.33C16.44 25.33 19.18 24.22 21.27 22.39L23.02 24.14L21.9 25.26C21.59 25.57 21.59 26.07 21.9 26.38L30.21 34.69C30.81 35.29 31.61 35.62 32.45 35.62C33.3 35.62 34.09 35.29 34.69 34.69C35.29 34.09 35.62 33.3 35.62 32.45C35.62 31.61 35.29 30.81 34.69 30.21ZM13.45 23.75C7.78 23.75 3.16 19.13 3.16 13.45C3.16 7.78 7.78 3.16 13.45 3.16C19.13 3.16 23.75 7.78 23.75 13.45C23.75 19.13 19.13 23.75 13.45 23.75ZM19.05 8.65C18.85 8.65 18.65 8.57 18.49 8.42C15.71 5.64 11.19 5.64 8.42 8.42C8.11 8.72 7.6 8.72 7.3 8.42C6.99 8.11 6.99 7.6 7.3 7.3C10.69 3.9 16.22 3.9 19.61 7.3C19.92 7.6 19.92 8.11 19.61 8.42C19.46 8.57 19.25 8.65 19.05 8.65Z" fill="#6D6D6D" fill-opacity="1.000000" fill-rule="nonzero"/>
	</g>
</svg>
